<svg width="150" height="40" viewBox="0 0 150 40" fill="none" xmlns="http://www.w3.org/2000/svg">
  <rect y="4" width="32" height="32" rx="8" fill="#465FFF"/>
  <path d="M9 15C9 14.4477 9.44772 14 10 14H13V19H9V15Z" fill="white"/>
  <path d="M13 14H16C16.5523 14 17 14.4477 17 15V19H13V14Z" fill="white" fill-opacity="0.6"/>
  <path d="M11 17H15" stroke="#465FFF" stroke-width="1.2" stroke-linecap="round"/>
  <path d="M13 15V18" stroke="#465FFF" stroke-width="1.2" stroke-linecap="round"/>
  <path d="M18 14L19.5 12.5" stroke="white" stroke-width="1.2" stroke-linecap="round"/>
  <path d="M21 14L19.5 12.5" stroke="white" stroke-width="1.2" stroke-linecap="round"/>
  <path d="M8 21H11L12 26H21L22 21H24" stroke="white" stroke-width="1.8" stroke-linecap="round" stroke-linejoin="round"/>
  <circle cx="13" cy="28" r="2" fill="white"/>
  <circle cx="20" cy="28" r="2" fill="white"/>
  
  <text x="42" y="26" fill="#101828" style="font-family: 'Outfit', sans-serif; font-size: 18px; font-weight: 700;">Medivault</text>
</svg>
